<?xml version="1.0" encoding="UTF-8"?>
<!DOCTYPE svg PUBLIC "-//W3C//DTD SVG 1.1//EN" "http://www.w3.org/Graphics/SVG/1.1/DTD/svg11.dtd">
<!-- Creator: CorelDRAW -->
<svg xmlns="http://www.w3.org/2000/svg" xml:space="preserve" width="60.7298mm" height="59.26mm" version="1.1" style="shape-rendering:geometricPrecision; text-rendering:geometricPrecision; image-rendering:optimizeQuality; fill-rule:evenodd; clip-rule:evenodd"
viewBox="0 0 665.66 649.55"
 xmlns:xlink="http://www.w3.org/1999/xlink"
 xmlns:xodm="http://www.corel.com/coreldraw/odm/2003">
 <defs>
  <style type="text/css">
   <![CDATA[
    .fil0 {fill:#55B6F9}
    .fil1 {fill:#55B6F9}
   ]]>
  </style>
 </defs>
 <g id="Layer_x0020_1">
  <metadata id="CorelCorpID_0Corel-Layer"/>
  <g id="_2226952647600">
   <path class="fil0" d="M383.65 527.76c-10.96,2 -32.39,-0.48 -45.25,-0.47 -14,0.01 -31.56,2.4 -43.55,1.84 2.03,5.31 13.92,4.49 20.59,4.9 16.6,1.03 61.86,2.16 73.96,-2.78l-4.46 -2.65c-0.2,-0.57 -0.86,-0.56 -1.3,-0.84zm-246.7 13.52c-14.39,1.89 -54.04,4.56 -67.26,-0.81 1.26,-0.8 -0.94,-0.82 4.84,-2.07 7.94,-1.72 37.43,-1.25 46.52,-0.94 21.94,0.75 12.5,0.94 15.89,3.82zm233.23 102.16c-8.44,8.2 -58.18,6.16 -74.39,4.99l-17.69 -2.35c-5.37,-2.25 -2.06,-0.49 -4.73,-3.21 16.42,-4.77 81.52,-7.77 96.81,0.58zm75.86 -22.44c-10.69,13.3 -120.24,7.82 -143.85,5.93 -2.29,-0.18 -8.72,-0.7 -10.24,-1.1 -12.51,-3.3 -4.39,-0.28 -8.16,-5.13 41.81,-7.06 121.41,-8.97 162.25,0.3zm-111.94 -41.19c-6.42,4.89 -3.27,-0.57 -6.79,5.55 19.28,10.35 91.97,0.89 102.42,13.51 -8.38,9.5 -80.58,7.17 -97.04,7.18 -20.5,0.01 -85.13,2.92 -96.61,-7.18 3.63,-11.84 33.22,-5.77 42.89,-13.83 -1.42,-2.21 -2.96,-3.17 -5.29,-5.19 -9.09,0.7 -43.84,-2.99 -57.3,-3.69 -16.14,-0.84 -46.71,0.35 -55.35,-8.02 10.14,-9.49 74.37,-9.1 95.1,-9.52 15.02,-0.17 58.32,-0.42 66.34,-7.39 -22.49,-10.33 -132.63,-0.32 -151.86,-10.76 2.03,-2.54 -0.53,-0.78 3.79,-3.11 2.18,-1.17 2.65,-1.17 5.24,-1.93 11.87,-3.5 25.83,-4.57 32.45,-11.03 1.52,-0.02 1.25,1.04 -0.64,-1.96 -42.82,-5.35 -108.2,-1.87 -143.94,-9.66 5.82,-4.4 20.64,-4.09 28.69,-4.65 13.42,-0.93 83.92,-2.33 91.86,-10.85 -29.02,-3.89 -63.2,-3.94 -93.83,-4.92 -13.14,-0.42 -90.87,-4.41 -94.24,-3.79 0.37,-4.27 -0.65,-2.57 7.81,-3.67l126.53 -4.54c8.16,-0.2 53.51,-0.51 61.67,-0.53 82.24,49.03 184.87,53.44 273.03,-0.69 62.83,0.3 133.04,4.56 193.58,6.15 4.01,0.88 2.13,-0.11 3.04,2.15 -24.7,2.63 -120.3,4.61 -134.34,10.03 5,9.84 52.68,8.29 66.13,13.83l-40.17 5.25c-28.66,1.56 -123.15,0.34 -136.03,8.23 23.94,11.96 111.09,5.11 126.67,15.73 -18.65,12.53 -161.87,1.25 -188.59,10.76 3.42,4.02 4.2,3.05 10.23,4.36 21.31,2.08 125.8,7.9 134.54,12.55 -10.41,8.47 -62.72,7.11 -81.84,7.82l-88.14 3.86z"/>
   <g>
    <path class="fil1" d="M151 380.13c91.87,65.06 219.09,43.34 284.16,-48.54 65.06,-91.87 43.33,-219.1 -48.54,-284.16 -38.11,-26.99 -82.31,-39 -125.63,-37.31 72.99,-20.95 154.47,-9.82 221.26,37.49 116.72,82.66 144.32,244.28 61.66,361 -82.66,116.72 -244.29,144.33 -361,61.67 -66.79,-47.3 -104.34,-120.47 -108.81,-196.27 12.79,41.42 38.78,79.13 76.9,106.12z"/>
    <path class="fil1" d="M187.09 400.56c26.42,32.25 61,58.57 102.32,75.42 56.18,22.91 115.71,24.59 169.78,8.9 -84.45,47.25 -192.05,45.05 -276.28,-14.6 -66.79,-47.3 -104.34,-120.47 -108.81,-196.27 12.79,41.42 38.78,79.13 76.9,106.12 11.54,8.17 23.64,14.97 36.09,20.44z"/>
    <path class="fil1" d="M391.8 17.93c104.25,42.51 154.29,161.47 111.78,265.71 -31.17,76.44 -103.46,123.68 -180.91,126.72 43.92,-12.01 84.11,-38.72 112.47,-78.78 65.06,-91.87 43.33,-219.1 -48.54,-284.16 -38.11,-26.99 -82.31,-39 -125.63,-37.31 41.8,-11.48 87.57,-9.82 130.82,7.81z"/>
   </g>
  </g>
 </g>
</svg>
